<?xml version="1.0" encoding="UTF-8"?>
<!DOCTYPE svg PUBLIC "-//W3C//DTD SVG 1.1//EN" "http://www.w3.org/Graphics/SVG/1.1/DTD/svg11.dtd">
<svg version="1.1" xmlns="http://www.w3.org/2000/svg" xmlns:xlink="http://www.w3.org/1999/xlink" x="0" y="0" width="82" height="82" viewBox="0, 0, 82, 82">
  <defs>
    <linearGradient id="Gradient_1" gradientUnits="userSpaceOnUse" x1="12.009" y1="69.991" x2="69.991" y2="12.009">
      <stop offset="0" stop-color="#0056FF"/>
      <stop offset="0" stop-color="#006AFF"/>
      <stop offset="1" stop-color="#00CAFF"/>
    </linearGradient>
  </defs>
  <g id="Freeform">
    <path d="M41,82 C18.356,82 0,63.644 0,41 C0,18.356 18.356,0 41,0 C63.644,0 82,18.356 82,41 C82,63.644 63.644,82 41,82 z" fill="url(#Gradient_1)"/>
    <g>
      <path d="M30.164,50.91 L36.925,49.098 L38.737,55.86 L31.975,57.672 L30.164,50.91 z" fill="#FFFFFF"/>
      <path d="M35.467,38.101 L42.228,36.289 L46.887,53.676 L40.125,55.488 L35.467,38.101 z" fill="#FFFFFF"/>
      <path d="M47.712,23.432 L52.575,41.579 C52.007,43.669 51.444,45.759 50.877,47.849 L51.505,52.439 L48.456,53.255 L40.951,25.244 L47.712,23.432 z" fill="#FFFFFF"/>
      <path d="M55.049,50.815 L55.218,51.444 L54.437,51.653 L55.049,50.815 z" fill="#FFFFFF"/>
    </g>
    <g>
      <path d="M33.012,16.339 C41.376,14.105 37.738,15.074 43.925,13.427 C53.197,10.997 55.166,18.248 55.837,20.611 C56.235,22.05 56.619,23.493 57.007,24.936 L55.42,30.861 C54.554,27.674 53.719,24.479 52.796,21.308 C51.399,16.648 49.499,15.3 44.458,16.476 C39.625,17.778 25.366,21.577 23.534,22.09 C20.644,22.915 17.504,24.492 18.979,30.236 C20.446,35.718 24.615,51.274 27.059,60.393 C28.786,67.035 32.487,66.177 35.394,65.56 C37.949,64.897 53.134,60.828 56.372,59.927 C61.338,58.547 62.058,55.928 60.883,51.389 L60.501,49.947 L62.105,43.961 C62.698,46.177 63.291,48.393 63.883,50.609 C66.24,59.424 61.113,61.702 57.072,62.975 C54.882,63.568 44.409,66.373 36.381,68.522 C26.965,71.102 24.809,63.775 24.115,61.231 C23.421,58.687 17.615,36.995 16.039,31.074 C13.536,21.858 20.594,19.73 22.69,19.128 C26.126,18.179 29.57,17.262 33.012,16.339 z" fill="#FFFFFF"/>
      <path d="M64.381,16.712 C65.851,17.07 66.773,18.344 66.413,19.693 C66.052,21.042 58.224,49.937 58.224,49.937 L58.224,49.937 C56.965,51.658 55.705,53.378 54.452,55.105 C54.234,55.407 53.832,55.303 53.806,54.905 L52.931,48.503 C52.931,48.503 60.752,19.616 61.122,18.26 C61.491,16.905 62.911,16.355 64.381,16.712 z" fill="#FF8300" id="Pencil"/>
    </g>
  </g>
</svg>
